SplineFontDB: 3.0
FontName: Jannon2
FullName: Jannon2
FamilyName: Jannon2
Weight: Regular
Copyright: Created by trashman with FontForge 2.0 (http://fontforge.sf.net)
UComments: "2010-9-5: Created." 
Version: 001.000
ItalicAngle: 0
UnderlinePosition: -100
UnderlineWidth: 50
Ascent: 700
Descent: 300
LayerCount: 3
Layer: 0 0 "Back"  1
Layer: 1 0 "Fore"  0
Layer: 2 0 "backup"  0
NeedsXUIDChange: 1
XUID: [1021 658 797806517 9253483]
FSType: 0
OS2Version: 0
OS2_WeightWidthSlopeOnly: 0
OS2_UseTypoMetrics: 1
CreationTime: 1283672823
ModificationTime: 1284023875
OS2TypoAscent: 0
OS2TypoAOffset: 1
OS2TypoDescent: 0
OS2TypoDOffset: 1
OS2TypoLinegap: 90
OS2WinAscent: 0
OS2WinAOffset: 1
OS2WinDescent: 0
OS2WinDOffset: 1
HheadAscent: 0
HheadAOffset: 1
HheadDescent: 0
HheadDOffset: 1
MarkAttachClasses: 1
DEI: 91125
Encoding: UnicodeBmp
UnicodeInterp: none
NameList: Adobe Glyph List
DisplaySize: -48
AntiAlias: 1
FitToEm: 1
WinInfo: 64 16 4
BeginPrivate: 8
BlueValues 15 [-21 0 395 410]
BlueScale 8 0.039625
BlueFuzz 1 0
BlueShift 1 7
StdHW 4 [24]
StdVW 4 [69]
StemSnapH 4 [24]
StemSnapV 4 [69]
EndPrivate
BeginChars: 65536 53

StartChar: a
Encoding: 97 97 0
Width: 408
VWidth: 0
Flags: W
HStem: -14 57<93.5 178.704> -5 62<306.314 364.993> 359 39<139.029 227.221>
VStem: 38 85<264.391 314.62> 41 71<30.0618 127.77> 236 66<64.1513 204.996 226.273 351.506>
LayerCount: 3
Fore
SplineSet
308 -5 m 0x74
 273 -5 248 22 239 39 c 0
 234 49 230 45 223 39 c 0
 203 21 156 -14 109 -14 c 0
 78 -14 41 6 41 55 c 0xac
 41 151 132 193 211 225 c 0
 234 234 236 244 236 267 c 2
 236 290 l 2
 236 328 234 359 181 359 c 0
 158 359 135 341 123 322 c 0
 105 292 119 257 69 245 c 0
 65 244 61 244 57 244 c 0
 45 244 38 250 38 266 c 0
 38 284 55 309 67 324 c 0
 96 360 151 398 215 398 c 0
 266 398 307 368 307 308 c 0
 307 263 302 115 302 105 c 0
 302 77 313 57 335 57 c 0
 351 57 359 62 368 68 c 0
 379 75 389 76 389 61 c 0
 389 28 348 -5 308 -5 c 0x74
112 100 m 0
 112 58 142 43 172 43 c 0
 233 43 236 118 236 181 c 0
 236 199 235 205 229 205 c 0
 225 205 219 203 210 199 c 0
 165 181 112 150 112 100 c 0
EndSplineSet
Validated: 1
EndChar

StartChar: b
Encoding: 98 98 1
Width: 488
VWidth: 0
Flags: W
HStem: -10 36<194.734 314.856> 348 49<184.985 303.549>
VStem: 68 48<-29.7917 17.9971> 75 69<65.7912 341.941 365.586 597.538> 380 75<109.116 271.431>
LayerCount: 3
Fore
SplineSet
26 618 m 0xd8
 26 627 29 629 46 638 c 0
 70 650 110 668 129 668 c 0
 145 668 152 659 152 645 c 0
 152 633 144 406 144 370 c 0xd8
 144 353 148 355 158 361 c 0
 184 377 229 397 272 397 c 0
 381 397 455 289 455 204 c 0
 455 84 362 -10 246 -10 c 0
 215 -10 174 1 149 12 c 0
 141 16 135 18 131 18 c 0
 125 18 122 14 116 4 c 0
 109 -9 105 -32 85 -32 c 0
 71 -32 68 -22 68 -12 c 0xe8
 68 0 75 88 75 152 c 2
 75 565 l 2
 75 590 73 590 55 597 c 0
 42 602 26 605 26 618 c 0xd8
380 185 m 0
 380 275 322 348 219 348 c 0
 205 348 191 347 176 344 c 0
 145 339 144 330 144 319 c 2
 144 98 l 2
 144 80 194 26 257 26 c 0
 339 26 380 109 380 185 c 0
EndSplineSet
Validated: 1
EndChar

StartChar: c
Encoding: 99 99 2
Width: 398
VWidth: 0
Flags: W
HStem: -21 54<174.017 300.186> 373 34<182.221 270.802>
VStem: 26 74<107.037 275.671>
LayerCount: 3
Fore
SplineSet
327 326 m 0
 285 326 272 373 233 373 c 0
 203 373 100 345 100 183 c 0
 100 98 172 33 251 33 c 0
 311 33 321 57 336 57 c 0
 343 57 347 52 347 47 c 0
 347 17 272 -21 216 -21 c 0
 112 -21 26 54 26 174 c 0
 26 303 119 407 256 407 c 0
 298 407 356 398 356 357 c 0
 356 340 348 326 327 326 c 0
EndSplineSet
Validated: 1
EndChar

StartChar: d
Encoding: 100 100 3
Width: 469
VWidth: 0
Flags: W
HStem: -18 21G<332.5 340> 4 32<407.516 450.935> 27 16<245 314> 349 31<165.845 279.707> 617 31<254.004 290.75>
VStem: 20 76<113.064 269.474> 319 69<50.5977 317.116 368.002 608.115>
LayerCount: 3
Fore
SplineSet
438 36 m 0xde
 445 36 451 31 451 21 c 0
 451 11 441 8 426 4 c 2xde
 353 -15 l 2
 347 -17 342 -18 338 -18 c 0
 327 -18 321 -11 321 6 c 0
 321 21 319 27 314 27 c 0xbe
 311 27 302 23 292 18 c 0
 267 6 237 -5 209 -5 c 0
 88 -5 20 73 20 177 c 0
 20 289 103 380 227 380 c 0
 252 380 269 377 298 371 c 0
 305 369 310 368 313 368 c 0
 318 368 319 371 319 384 c 0
 319 483 316 539 316 570 c 0
 316 606 300 607 294 609 c 2
 268 617 l 2
 257 620 254 622 254 633 c 0
 254 641 259 647 263 648 c 0
 290 653 341 658 351 658 c 0
 381 658 391 646 391 614 c 0
 391 545 388 505 388 370 c 2
 388 68 l 2
 388 44 391 32 407 32 c 0
 418 32 430 36 438 36 c 0xde
96 194 m 0
 96 83 191 43 245 43 c 0xbe
 273 43 319 48 319 74 c 2
 319 251 l 2
 319 310 281 349 228 349 c 0
 148 349 96 291 96 194 c 0
EndSplineSet
Validated: 1
EndChar

StartChar: e
Encoding: 101 101 4
Width: 421
VWidth: 0
Flags: WO
HStem: -19 64<172.169 298.427> 239 26<121.271 287.223> 369 36<172.974 284.438>
VStem: 28 75<119.087 237.621> 308 74<277.988 331.138>
LayerCount: 3
Fore
SplineSet
223 -19 m 0
 121 -19 28 56 28 172 c 0
 28 302 112 405 224 405 c 0
 318 405 373 340 382 268 c 0
 383 264 384 260 384 257 c 0
 384 240 371 233 351 233 c 0
 275 233 141 239 123 239 c 0
 104 239 103 224 103 206 c 0
 103 113 165 45 242 45 c 0
 338 45 323 86 350 86 c 0
 353 86 361 82 361 73 c 0
 361 68 358 54 350 44 c 0
 325 12 270 -19 223 -19 c 0
308 311 m 0
 308 347 267 369 227 369 c 0
 175 369 145 331 127 292 c 0
 123 283 121 277 121 273 c 0
 121 266 127 265 140 265 c 2
 164 265 l 2
 258 265 308 269 308 311 c 0
EndSplineSet
Validated: 1
EndChar

StartChar: f
Encoding: 102 102 5
Width: 338
VWidth: 0
Flags: W
HStem: 0 24<38 65.125 216.438 251> 334 49<172 284> 334 25<40 78.3766> 608 53<230.097 318.18>
VStem: 101 71<40 334 383 523.723>
LayerCount: 3
Fore
SplineSet
349 578 m 0xb8
 316 578 295 608 267 608 c 0
 212 608 191 553 184 518 c 0
 176 478 172 425 172 383 c 1
 284 383 l 1
 284 334 l 1
 172 334 l 1xd8
 172 40 l 1
 251 24 l 1
 251 0 l 1
 38 0 l 1
 38 24 l 1
 100 40 l 1
 101 334 l 1
 40 334 l 1
 40 359 l 1
 40 359 79 372 101 378 c 1
 101 412 101 475 127 535 c 0
 152 593 233 661 305 661 c 0
 352 661 388 647 388 623 c 0
 388 601 370 578 349 578 c 0xb8
EndSplineSet
Validated: 1
EndChar

StartChar: g
Encoding: 103 103 6
Width: 473
VWidth: 0
Flags: W
HStem: -265 32<97.0344 247.421> -37 61<107.051 242.5> -33 64<148.24 332.421> 115 26<163.714 245.284> 332 58<349.662 429.692> 385 25<162.174 241.512>
VStem: -9 57<-198.697 -98.2123> 32 61<39.2935 96.691> 54 68<180.017 344.804> 287 67<193.073 330.273> 355 54<-156.667 -56.8581>
LayerCount: 3
Fore
SplineSet
287 274 m 0x94e0
 287 354 240 385 200 385 c 0
 159 385 122 348 122 271 c 0
 122 190 152 141 204 141 c 0
 262 141 287 197 287 274 c 0x94e0
355 -106 m 0
 355 -82 349 -33 244 -33 c 0xb260
 212 -33 180 -33 146 -37 c 0
 114 -41 48 -83 48 -148 c 0xd260
 48 -216 125 -233 182 -233 c 0
 255 -233 355 -186 355 -106 c 0
210 410 m 0xb4e0
 257 410 272 401 298 388 c 1
 334 389 378 390 405 390 c 0
 429 390 430 372 430 361 c 0
 430 342 429 332 412 332 c 2
 361 332 l 2
 352 332 348 328 349 316 c 0
 350 305 354 290 354 273 c 0
 354 227 331 177 295 143 c 0
 274 124 233 115 191 115 c 0
 175 115 159 116 144 116 c 0
 132 116 93 80 93 66 c 0
 93 46 138 24 147 24 c 0xd960
 187 24 245 31 281 31 c 0
 348 31 409 -2 409 -82 c 0
 409 -162 348 -211 277 -239 c 0
 236 -255 191 -265 154 -265 c 0
 73 -265 -9 -245 -9 -159 c 0xb260
 -9 -94 52 -58 91 -39 c 0
 100 -35 104 -32 104 -28 c 0
 104 -23 97 -17 88 -10 c 0
 58 14 32 48 32 74 c 0xb160
 32 95 38 95 61 102 c 0
 92 112 119 119 119 124 c 0
 119 128 111 137 104 144 c 0
 89 159 74 179 65 201 c 0
 55 226 54 253 54 274 c 0
 54 316 75 359 117 385 c 0
 141 400 171 410 210 410 c 0xb4e0
EndSplineSet
Validated: 1
EndChar

StartChar: h
Encoding: 104 104 7
Width: 218
VWidth: 0
Flags: W
HStem: 246 68<78.3303 141.67>
VStem: 76 68<248.33 311.67>
LayerCount: 3
Fore
SplineSet
76 280 m 4
 76 299 91 314 110 314 c 4
 129 314 144 299 144 280 c 4
 144 261 129 246 110 246 c 4
 91 246 76 261 76 280 c 4
EndSplineSet
Validated: 1
EndChar

StartChar: i
Encoding: 105 105 8
Width: 218
VWidth: 0
Flags: W
HStem: 246 68<78.3303 141.67>
VStem: 76 68<248.33 311.67>
LayerCount: 3
Fore
SplineSet
76 280 m 4
 76 299 91 314 110 314 c 4
 129 314 144 299 144 280 c 4
 144 261 129 246 110 246 c 4
 91 246 76 261 76 280 c 4
EndSplineSet
Validated: 1
EndChar

StartChar: j
Encoding: 106 106 9
Width: 218
VWidth: 0
Flags: W
HStem: 246 68<78.3303 141.67>
VStem: 76 68<248.33 311.67>
LayerCount: 3
Fore
SplineSet
76 280 m 4
 76 299 91 314 110 314 c 4
 129 314 144 299 144 280 c 4
 144 261 129 246 110 246 c 4
 91 246 76 261 76 280 c 4
EndSplineSet
Validated: 1
EndChar

StartChar: k
Encoding: 107 107 10
Width: 218
VWidth: 0
Flags: W
HStem: 246 68<78.3303 141.67>
VStem: 76 68<248.33 311.67>
LayerCount: 3
Fore
SplineSet
76 280 m 4
 76 299 91 314 110 314 c 4
 129 314 144 299 144 280 c 4
 144 261 129 246 110 246 c 4
 91 246 76 261 76 280 c 4
EndSplineSet
Validated: 1
EndChar

StartChar: l
Encoding: 108 108 11
Width: 218
VWidth: 0
Flags: W
HStem: 246 68<78.3303 141.67>
VStem: 76 68<248.33 311.67>
LayerCount: 3
Fore
SplineSet
76 280 m 4
 76 299 91 314 110 314 c 4
 129 314 144 299 144 280 c 4
 144 261 129 246 110 246 c 4
 91 246 76 261 76 280 c 4
EndSplineSet
Validated: 1
EndChar

StartChar: m
Encoding: 109 109 12
Width: 218
VWidth: 0
Flags: W
HStem: 246 68<78.3303 141.67>
VStem: 76 68<248.33 311.67>
LayerCount: 3
Fore
SplineSet
76 280 m 4
 76 299 91 314 110 314 c 4
 129 314 144 299 144 280 c 4
 144 261 129 246 110 246 c 4
 91 246 76 261 76 280 c 4
EndSplineSet
Validated: 1
EndChar

StartChar: n
Encoding: 110 110 13
Width: 218
VWidth: 0
Flags: W
HStem: 246 68<78.3303 141.67>
VStem: 76 68<248.33 311.67>
LayerCount: 3
Fore
SplineSet
76 280 m 4
 76 299 91 314 110 314 c 4
 129 314 144 299 144 280 c 4
 144 261 129 246 110 246 c 4
 91 246 76 261 76 280 c 4
EndSplineSet
Validated: 1
EndChar

StartChar: o
Encoding: 111 111 14
Width: 218
VWidth: 0
Flags: W
HStem: 246 68<78.3303 141.67>
VStem: 76 68<248.33 311.67>
LayerCount: 3
Fore
SplineSet
76 280 m 4
 76 299 91 314 110 314 c 4
 129 314 144 299 144 280 c 4
 144 261 129 246 110 246 c 4
 91 246 76 261 76 280 c 4
EndSplineSet
Validated: 1
EndChar

StartChar: p
Encoding: 112 112 15
Width: 218
VWidth: 0
Flags: W
HStem: 246 68<78.3303 141.67>
VStem: 76 68<248.33 311.67>
LayerCount: 3
Fore
SplineSet
76 280 m 4
 76 299 91 314 110 314 c 4
 129 314 144 299 144 280 c 4
 144 261 129 246 110 246 c 4
 91 246 76 261 76 280 c 4
EndSplineSet
Validated: 1
EndChar

StartChar: q
Encoding: 113 113 16
Width: 218
VWidth: 0
Flags: W
HStem: 246 68<78.3303 141.67>
VStem: 76 68<248.33 311.67>
LayerCount: 3
Fore
SplineSet
76 280 m 4
 76 299 91 314 110 314 c 4
 129 314 144 299 144 280 c 4
 144 261 129 246 110 246 c 4
 91 246 76 261 76 280 c 4
EndSplineSet
Validated: 1
EndChar

StartChar: r
Encoding: 114 114 17
Width: 218
VWidth: 0
Flags: W
HStem: 246 68<78.3303 141.67>
VStem: 76 68<248.33 311.67>
LayerCount: 3
Fore
SplineSet
76 280 m 4
 76 299 91 314 110 314 c 4
 129 314 144 299 144 280 c 4
 144 261 129 246 110 246 c 4
 91 246 76 261 76 280 c 4
EndSplineSet
Validated: 1
EndChar

StartChar: s
Encoding: 115 115 18
Width: 218
VWidth: 0
Flags: W
HStem: 246 68<78.3303 141.67>
VStem: 76 68<248.33 311.67>
LayerCount: 3
Fore
SplineSet
76 280 m 4
 76 299 91 314 110 314 c 4
 129 314 144 299 144 280 c 4
 144 261 129 246 110 246 c 4
 91 246 76 261 76 280 c 4
EndSplineSet
Validated: 1
EndChar

StartChar: t
Encoding: 116 116 19
Width: 218
VWidth: 0
Flags: W
HStem: 246 68<78.3303 141.67>
VStem: 76 68<248.33 311.67>
LayerCount: 3
Fore
SplineSet
76 280 m 4
 76 299 91 314 110 314 c 4
 129 314 144 299 144 280 c 4
 144 261 129 246 110 246 c 4
 91 246 76 261 76 280 c 4
EndSplineSet
Validated: 1
EndChar

StartChar: u
Encoding: 117 117 20
Width: 218
VWidth: 0
Flags: W
HStem: 246 68<78.3303 141.67>
VStem: 76 68<248.33 311.67>
LayerCount: 3
Fore
SplineSet
76 280 m 4
 76 299 91 314 110 314 c 4
 129 314 144 299 144 280 c 4
 144 261 129 246 110 246 c 4
 91 246 76 261 76 280 c 4
EndSplineSet
Validated: 1
EndChar

StartChar: v
Encoding: 118 118 21
Width: 218
VWidth: 0
Flags: W
HStem: 246 68<78.3303 141.67>
VStem: 76 68<248.33 311.67>
LayerCount: 3
Fore
SplineSet
76 280 m 4
 76 299 91 314 110 314 c 4
 129 314 144 299 144 280 c 4
 144 261 129 246 110 246 c 4
 91 246 76 261 76 280 c 4
EndSplineSet
Validated: 1
EndChar

StartChar: w
Encoding: 119 119 22
Width: 218
VWidth: 0
Flags: W
HStem: 246 68<78.3303 141.67>
VStem: 76 68<248.33 311.67>
LayerCount: 3
Fore
SplineSet
76 280 m 4
 76 299 91 314 110 314 c 4
 129 314 144 299 144 280 c 4
 144 261 129 246 110 246 c 4
 91 246 76 261 76 280 c 4
EndSplineSet
Validated: 1
EndChar

StartChar: x
Encoding: 120 120 23
Width: 218
VWidth: 0
Flags: W
HStem: 246 68<78.3303 141.67>
VStem: 76 68<248.33 311.67>
LayerCount: 3
Fore
SplineSet
76 280 m 4
 76 299 91 314 110 314 c 4
 129 314 144 299 144 280 c 4
 144 261 129 246 110 246 c 4
 91 246 76 261 76 280 c 4
EndSplineSet
Validated: 1
EndChar

StartChar: y
Encoding: 121 121 24
Width: 218
VWidth: 0
Flags: W
HStem: 246 68<78.3303 141.67>
VStem: 76 68<248.33 311.67>
LayerCount: 3
Fore
SplineSet
76 280 m 4
 76 299 91 314 110 314 c 4
 129 314 144 299 144 280 c 4
 144 261 129 246 110 246 c 4
 91 246 76 261 76 280 c 4
EndSplineSet
Validated: 1
EndChar

StartChar: z
Encoding: 122 122 25
Width: 218
VWidth: 0
Flags: W
HStem: 246 68<78.3303 141.67>
VStem: 76 68<248.33 311.67>
LayerCount: 3
Fore
SplineSet
76 280 m 4
 76 299 91 314 110 314 c 4
 129 314 144 299 144 280 c 4
 144 261 129 246 110 246 c 4
 91 246 76 261 76 280 c 4
EndSplineSet
Validated: 1
EndChar

